<?xml version="1.0" encoding="UTF-8"?>
<svg version="1.1" xmlns="http://www.w3.org/2000/svg" width="512" height="512">
<path d="M0 0 C2.85162837 2.72968374 3.8691704 4.33122508 4.62890625 8.21484375 C3.7296491 13.627143 1.07822897 17.14365903 -2.0625 21.5625 C-3.00935669 22.93680176 -3.00935669 22.93680176 -3.9753418 24.33886719 C-5.30716622 26.27026742 -6.64560647 28.1971204 -7.99023438 30.11962891 C-10.52136088 33.74720793 -13.00589188 37.40523227 -15.48950195 41.06542969 C-17.32975753 43.77541366 -19.1776229 46.48006311 -21.02734375 49.18359375 C-23.92387935 53.42004335 -26.81040519 57.66313897 -29.69140625 61.91015625 C-30.47941007 63.07128956 -31.26741463 64.23242238 -32.05541992 65.39355469 C-33.21003577 67.09501752 -34.36430461 68.79671047 -35.51748657 70.49914551 C-36.58100791 72.06909308 -37.64593875 73.63808553 -38.7109375 75.20703125 C-39.32243652 76.1091333 -39.93393555 77.01123535 -40.56396484 77.94067383 C-42 80 -42 80 -43 81 C-43.08855161 83.6662603 -43.11524673 86.30647114 -43.09765625 88.97265625 C-43.0962413 89.77029892 -43.09482635 90.56794159 -43.09336853 91.38975525 C-43.08775316 93.94737435 -43.07519812 96.50490718 -43.0625 99.0625 C-43.05748698 100.79231645 -43.05292373 102.52213426 -43.04882812 104.25195312 C-43.03777875 108.50133553 -43.02050386 112.75065312 -43 117 C-42.09037254 116.07704887 -42.09037254 116.07704887 -41.16236877 115.13545227 C-35.42134205 109.31398826 -29.67052345 103.50241129 -23.90873814 97.70148945 C-20.94749808 94.71945193 -17.99006247 91.73384284 -15.04125977 88.73950195 C-12.19073756 85.84524128 -9.33030734 82.9611114 -6.46299553 80.08348656 C-5.3755369 78.98868656 -4.29158045 77.89039536 -3.21136665 76.78844643 C5.3212683 68.09115581 12.88693091 61.05387958 25.53295898 60.70703125 C36.86246505 60.60125922 44.63199957 62.74723104 53.0234375 70.8125 C59.41827841 77.88979429 61.54839776 85.5389331 62 95 C61.79585814 98.86848831 61.28757087 102.34430859 60 106 C59.78456543 106.63043213 59.56913086 107.26086426 59.34716797 107.91040039 C56.74696566 113.83782212 52.89793771 116.73297724 47.765625 120.33984375 C36.80123182 128.39598417 25.159149 137.4215233 22.78612328 151.61279964 C20.72174614 167.27984843 21.78431762 183.31039283 22.6292305 199.0336113 C23.3600929 212.72544688 22.16242714 224.97735444 15 237 C15.94875 237.04125 16.8975 237.0825 17.875 237.125 C26.63496875 238.45226799 33.11095481 244.34115107 38.2421875 251.20703125 C46.42329873 264.20590798 47.83072694 278.80574607 45.38671875 293.75 C42.50552795 304.31013545 36.56058731 313.45485936 27 319 C26.34 319 25.68 319 25 319 C25.66 319.61875 26.32 320.2375 27 320.875 C36.67792061 330.66289698 43.94441548 341.39655088 44.3125 355.5 C44.17057752 367.05248951 40.15136052 376.11210602 33 385 C32.55011719 385.61230469 32.10023438 386.22460938 31.63671875 386.85546875 C18.23664889 404.12930512 -5.82883126 412.44865932 -26.68929291 415.57198143 C-36.58573393 416.71318196 -46.67995342 416.28568778 -56.62402344 416.2746582 C-59.21901597 416.27901047 -61.81400722 416.28419533 -64.40899658 416.29014587 C-70.70218481 416.30283442 -76.99533026 416.30469386 -83.28852913 416.30234561 C-88.40964526 416.30055551 -93.5307485 416.30232685 -98.6518631 416.30657005 C-99.38343953 416.30716524 -100.11501596 416.30776043 -100.86876138 416.30837366 C-102.355446 416.30958553 -103.84213063 416.31079967 -105.32881525 416.31201603 C-119.24227195 416.32286932 -133.15570435 416.32073974 -147.0691624 416.31463119 C-159.76360647 416.30946549 -172.45797373 416.32071225 -185.15240261 416.33972941 C-198.22375694 416.35915929 -211.29507502 416.36735471 -224.36644387 416.36360615 C-231.6902623 416.36170171 -239.0140154 416.36410719 -246.33782196 416.37832069 C-253.22933297 416.39156115 -260.12068861 416.3889049 -267.0121994 416.37590981 C-269.53033501 416.3735559 -272.04848157 416.37623576 -274.56660461 416.38453293 C-303.69950508 416.47354609 -331.58382224 412.16637889 -354 392 C-354.64453125 391.43667969 -355.2890625 390.87335938 -355.953125 390.29296875 C-360.75442598 385.83610892 -363.96045438 380.77250883 -367 375 C-367.41636719 374.26394531 -367.83273437 373.52789062 -368.26171875 372.76953125 C-372.58950125 363.94692904 -372.48002007 352.88733649 -370.1171875 343.48828125 C-366.47865232 334.07869192 -360.22355373 326.87118526 -353 320 C-353.56847656 319.59910156 -354.13695312 319.19820313 -354.72265625 318.78515625 C-365.28026868 311.01235645 -370.52006987 302.71305966 -373.75 290.0625 C-375.0078297 274.65408618 -372.99426417 260.20757988 -362.83984375 248.03515625 C-356.93343011 241.50173479 -351.45955013 238.60058503 -343 236 C-343.33773437 235.23816406 -343.67546875 234.47632813 -344.0234375 233.69140625 C-344.69246094 232.14259766 -344.69246094 232.14259766 -345.375 230.5625 C-345.81585938 229.55316406 -346.25671875 228.54382813 -346.7109375 227.50390625 C-349.92329434 218.7721363 -350.07006766 211.60759266 -349.45347595 202.39933395 C-345.97030714 167.37582645 -345.97030714 167.37582645 -357.75 136.0390625 C-363.33431671 129.88664258 -369.8863262 124.88321023 -376.69267273 120.15640259 C-383.74352206 115.13638511 -387.21746347 108.42355823 -389 100 C-389.94327039 89.59309882 -388.02622144 79.91589248 -381.47265625 71.55859375 C-374.78760167 64.48342988 -367.58755518 60.98359936 -357.88134766 60.59643555 C-345.51237385 60.41040575 -338.14158534 63.37387256 -329.19604492 71.85083008 C-327.78608693 73.22238921 -326.39285979 74.61108041 -325 76 C-324.51611816 76.48227051 -324.03223633 76.96454102 -323.53369141 77.46142578 C-322.3537366 78.6388921 -321.17656616 79.81914762 -320 81 C-320.68055224 77.20705549 -321.37034634 73.4158439 -322.0625 69.625 C-322.277854 68.43865967 -322.49320801 67.25231934 -322.71508789 66.0300293 C-324.01745365 58.96504759 -325.42362064 51.93566335 -326.9609375 44.91796875 C-327.2917358 43.38919272 -327.62238423 41.86038425 -327.95288086 40.33154297 C-328.43926167 38.08394498 -328.93154132 35.83857341 -329.44387817 33.59674072 C-332.83763332 18.74041933 -332.83763332 18.74041933 -330 12 C-325.21891483 6.82049107 -319.06599732 7.38118158 -312.36106491 7.0792923 C-303.27852083 6.7742707 -294.18395151 6.85816913 -285.09765625 6.8671875 C-282.68737274 6.86651239 -280.27708931 6.86554065 -277.86680603 6.86428833 C-272.83478136 6.86282081 -267.80277454 6.86493517 -262.77075195 6.86962891 C-256.35823932 6.8753225 -249.94576858 6.87204345 -243.53325748 6.86605644 C-238.56151521 6.86242257 -233.58978267 6.86360239 -228.61804008 6.86618423 C-226.2552229 6.86684586 -223.89240481 6.86605216 -221.5295887 6.86370468 C-200.44076795 6.84734688 -200.44076795 6.84734688 -191.24780273 7.25830078 C-190.13952621 7.30350861 -189.03124969 7.34871643 -187.88938904 7.39529419 C-183.66786293 8.27879632 -181.04054397 10.42465453 -178.67993164 13.99853516 C-175.66991261 22.85890715 -181.14788262 36.75455617 -183.0625 45.625 C-184.361875 51.68875 -185.66125 57.7525 -187 64 C-162.58 64 -138.16 64 -113 64 C-119.92178688 53.61731967 -126.84110826 43.24281498 -133.875 32.9375 C-135.95515671 29.8874892 -138.03437519 26.83691824 -140.10693359 23.78173828 C-141.33512068 21.97699703 -142.57194313 20.17809085 -143.81884766 18.38623047 C-144.63554932 17.19924561 -144.63554932 17.19924561 -145.46875 15.98828125 C-145.94505859 15.30419189 -146.42136719 14.62010254 -146.91210938 13.9152832 C-148.69115013 10.78319732 -148.66871196 8.47730218 -148 5 C-140.31835718 -6.47748974 -121.56425692 -10.3562956 -109 -14 C-108.2251123 -14.22880859 -107.45022461 -14.45761719 -106.65185547 -14.69335938 C-73.11015797 -24.15813184 -29.47730292 -19.00951069 0 0 Z " fill="#FE99C9" transform="translate(420,58)"/>
<path d="M0 0 C2.85162837 2.72968374 3.8691704 4.33122508 4.62890625 8.21484375 C3.7296491 13.627143 1.07822897 17.14365903 -2.0625 21.5625 C-3.00935669 22.93680176 -3.00935669 22.93680176 -3.9753418 24.33886719 C-5.30716622 26.27026742 -6.64560647 28.1971204 -7.99023438 30.11962891 C-10.52136088 33.74720793 -13.00589188 37.40523227 -15.48950195 41.06542969 C-17.32975753 43.77541366 -19.1776229 46.48006311 -21.02734375 49.18359375 C-23.92387935 53.42004335 -26.81040519 57.66313897 -29.69140625 61.91015625 C-30.47941007 63.07128956 -31.26741463 64.23242238 -32.05541992 65.39355469 C-33.21003577 67.09501752 -34.36430461 68.79671047 -35.51748657 70.49914551 C-36.58100791 72.06909308 -37.64593875 73.63808553 -38.7109375 75.20703125 C-39.32243652 76.1091333 -39.93393555 77.01123535 -40.56396484 77.94067383 C-42 80 -42 80 -43 81 C-43.07366919 83.71640828 -43.08810584 86.41272335 -43.0703125 89.12890625 C-43.07890457 90.82097379 -43.0893834 92.5130326 -43.1015625 94.20507812 C-43.11819351 96.87606682 -43.12516627 99.54512362 -43.09960938 102.21606445 C-43.07849795 104.7923781 -43.10201467 107.36525341 -43.1328125 109.94140625 C-43.11542023 110.72818253 -43.09802795 111.5149588 -43.08010864 112.32557678 C-43.17797888 116.88054262 -43.97309915 119.40734368 -47.08039856 122.79168701 C-47.71541164 123.48638879 -48.35042473 124.18109056 -49.00468063 124.89684391 C-52.15327691 128.21560558 -55.34452132 131.48375206 -58.58422852 134.71362305 C-59.30713074 135.43827759 -60.03003296 136.16293213 -60.77484131 136.9095459 C-63.1403718 139.27944058 -65.50949726 141.64570226 -67.87890625 144.01171875 C-69.53619235 145.6696793 -71.19333005 147.32778821 -72.85032654 148.98603821 C-76.31257638 152.44975754 -79.77661624 155.91167391 -83.24194336 159.37231445 C-87.67592901 163.80059434 -92.10539786 168.23336081 -96.53353977 172.66748333 C-99.95041582 176.0879776 -103.36967584 179.50608076 -106.78965569 182.92347145 C-108.42381048 184.55696094 -110.05722766 186.1911887 -111.68988228 187.8261776 C-113.97256133 190.11140486 -116.25843641 192.39338745 -118.54516602 194.67456055 C-119.21390244 195.3453212 -119.88263885 196.01608185 -120.57164001 196.70716858 C-124.23014677 200.34927919 -127.87806567 203.883436 -132 207 C-135.55256905 206.90863287 -138.45438587 205.47865743 -141.6875 204.0625 C-155.01428703 198.65709228 -171.59813044 197.6370675 -185.0546875 203.28125 C-186.92909801 204.17619401 -188.78842166 205.10400252 -190.625 206.07421875 C-193.4711855 207.18366935 -194.18796998 207.09747298 -197 206 C-199.37071991 204.03194332 -199.37071991 204.03194332 -202.04772949 201.39378357 C-202.7897874 200.66827076 -202.7897874 200.66827076 -203.54683638 199.92810112 C-205.204453 198.30355235 -206.85117649 196.66839554 -208.49804688 195.03295898 C-209.68369727 193.86610693 -210.86991445 192.69983055 -212.05665588 191.53408813 C-215.95486275 187.69899519 -219.83706695 183.84789799 -223.71875 179.99609375 C-225.05832432 178.66866541 -226.39800062 177.34133997 -227.73777771 176.01411629 C-234.0363764 169.77268794 -240.32770234 163.52403977 -246.61026239 157.26646751 C-253.84677922 150.05921029 -261.10737163 142.87741502 -268.38973761 135.71649498 C-274.02551835 130.17147638 -279.63780488 124.60335858 -285.23333979 119.01773316 C-288.5713658 115.68673162 -291.91839693 112.36621513 -295.29063416 109.06982231 C-298.46938956 105.96141267 -301.61775518 102.82504927 -304.74616814 99.66600418 C-305.89183355 98.51886396 -307.04761314 97.38171128 -308.21458626 96.2562542 C-316.86536799 87.89600379 -320.03243489 80.81600039 -322 69 C-322.45632795 66.93490065 -322.92189398 64.87177872 -323.40380859 62.8125 C-324.52141466 57.6459104 -325.60729227 52.47260192 -326.68408203 47.29736328 C-327.14802336 45.08323196 -327.61948842 42.8706649 -328.09814453 40.65966797 C-328.79857204 37.42227393 -329.47592842 34.18079368 -330.1484375 30.9375 C-330.36494965 29.95716797 -330.58146179 28.97683594 -330.80453491 27.96679688 C-332.01897922 21.94944817 -332.104303 17.80993724 -330 12 C-325.21891483 6.82049107 -319.06599732 7.38118158 -312.36106491 7.0792923 C-303.27852083 6.7742707 -294.18395151 6.85816913 -285.09765625 6.8671875 C-282.68737274 6.86651239 -280.27708931 6.86554065 -277.86680603 6.86428833 C-272.83478136 6.86282081 -267.80277454 6.86493517 -262.77075195 6.86962891 C-256.35823932 6.8753225 -249.94576858 6.87204345 -243.53325748 6.86605644 C-238.56151521 6.86242257 -233.58978267 6.86360239 -228.61804008 6.86618423 C-226.2552229 6.86684586 -223.89240481 6.86605216 -221.5295887 6.86370468 C-200.44076795 6.84734688 -200.44076795 6.84734688 -191.24780273 7.25830078 C-190.13952621 7.30350861 -189.03124969 7.34871643 -187.88938904 7.39529419 C-183.66786293 8.27879632 -181.04054397 10.42465453 -178.67993164 13.99853516 C-175.66991261 22.85890715 -181.14788262 36.75455617 -183.0625 45.625 C-184.361875 51.68875 -185.66125 57.7525 -187 64 C-162.58 64 -138.16 64 -113 64 C-119.92178688 53.61731967 -126.84110826 43.24281498 -133.875 32.9375 C-135.95515671 29.8874892 -138.03437519 26.83691824 -140.10693359 23.78173828 C-141.33512068 21.97699703 -142.57194313 20.17809085 -143.81884766 18.38623047 C-144.63554932 17.19924561 -144.63554932 17.19924561 -145.46875 15.98828125 C-145.94505859 15.30419189 -146.42136719 14.62010254 -146.91210938 13.9152832 C-148.69115013 10.78319732 -148.66871196 8.47730218 -148 5 C-140.31835718 -6.47748974 -121.56425692 -10.3562956 -109 -14 C-108.2251123 -14.22880859 -107.45022461 -14.45761719 -106.65185547 -14.69335938 C-73.11015797 -24.15813184 -29.47730292 -19.00951069 0 0 Z " fill="#FEA6A6" transform="translate(420,58)"/>
<path d="M0 0 C4.23351185 3.45682104 8.12610686 7.14805527 12 11 C12.68320313 11.65742188 13.36640625 12.31484375 14.0703125 12.9921875 C16.86154544 15.70832001 19.47113515 18.52400468 21.99472046 21.48948669 C26.84680451 27.05257671 32.06921807 32.24950942 37.27197266 37.48071289 C38.39804617 38.61634426 39.52395195 39.75214198 40.64970398 40.88809204 C44.31729432 44.58679218 47.99020236 48.28018507 51.6640625 51.97265625 C52.60354335 52.91708308 52.60354335 52.91708308 53.56200361 53.88058925 C59.47112893 59.82043952 65.38227416 65.75827268 71.29827309 71.6912775 C78.85214444 79.26712696 86.39573168 86.8529092 93.92588961 94.4523316 C99.23196643 99.80555292 104.54939932 105.14732288 109.87546003 110.48066133 C113.05379323 113.66395716 116.22683602 116.85214496 119.38777542 120.05272102 C122.35436212 123.05602718 125.33469176 126.04496169 128.32634926 129.02328873 C129.42284647 130.1198401 130.51419368 131.22156845 131.60000801 132.32869911 C133.07989935 133.83608501 134.57699419 135.32394277 136.07998657 136.8082428 C136.91433542 137.64682359 137.74868427 138.48540438 138.60831642 139.34939671 C140.87631261 141.27884079 140.87631261 141.27884079 143.61682701 140.83425045 C146.5546171 139.80585146 149.43427925 138.68575801 152.3125 137.5 C157.34348023 135.54507263 161.62261792 134.1581583 167 134 C167.928125 133.938125 168.85625 133.87625 169.8125 133.8125 C179.73352322 133.42344027 190.35354923 135.0227805 199.22265625 139.69921875 C201.7644387 141.15810164 201.7644387 141.15810164 203.81723022 140.89520264 C207.01816812 139.58242652 209.23905796 137.33656182 211.70166016 134.97753906 C212.2651951 134.4470911 212.82873005 133.91664314 213.40934181 133.370121 C221.00261891 126.17560896 228.38314786 118.76095965 235.7734375 111.359375 C237.35220042 109.78128767 238.93111159 108.20334863 240.51016235 106.62554932 C243.79436902 103.34280547 247.07678948 100.05828915 250.35791016 96.77246094 C254.54706871 92.57758228 258.740734 88.38724222 262.9357357 84.19820786 C266.18731014 80.95025735 269.43648641 77.69991616 272.6849556 74.44886017 C274.23026952 72.90288326 275.77631525 71.35763746 277.32313156 69.81316376 C279.48527534 67.65357938 281.64415476 65.4907815 283.80224609 63.32714844 C284.74374008 62.3886908 284.74374008 62.3886908 285.70425415 61.43127441 C289.42568823 57.69225262 292.9421674 53.8272441 296.39245415 49.83716774 C298.47342436 47.45895169 300.65438185 45.19683513 302.87451172 42.94848633 C303.76588837 42.04427444 304.65726501 41.14006256 305.57565308 40.20845032 C306.52664389 39.24929286 307.4779977 38.29049517 308.4296875 37.33203125 C308.91953251 36.83811071 309.40937752 36.34419018 309.91406631 35.83530235 C312.50212539 33.22655521 315.09332537 30.6209741 317.68701172 28.01782227 C320.34359457 25.35014402 322.98827497 22.67097754 325.63053703 19.98912525 C327.6863407 17.90704165 329.75111054 15.8340221 331.81830215 13.76325035 C332.79676629 12.77995852 333.77189125 11.79333073 334.74337387 10.80314064 C343.85797629 1.5238574 351.3935434 -4.18897141 364.625 -4.3125 C375.1314883 -4.3125 382.34509697 -1.56738913 390.0234375 5.8125 C396.41827841 12.88979429 398.54839776 20.5389331 399 30 C398.36387549 42.05455943 392.40248012 50.21313614 384.03198242 58.43798828 C382.85047356 59.62278275 382.85047356 59.62278275 381.64509583 60.83151245 C379.05806406 63.42084168 376.45708646 65.99564571 373.85546875 68.5703125 C372.04251662 70.3783353 370.2303802 72.18717638 368.41902161 73.99679565 C364.62803805 77.78015544 360.8309818 81.55724925 357.02807617 85.32861328 C352.16726609 90.14915672 347.31792921 94.98106748 342.47240734 99.81697273 C337.83315189 104.44699233 333.18821863 109.07130826 328.54296875 113.6953125 C327.6638854 114.5710001 326.78480206 115.4466877 325.87907982 116.34891129 C323.37410526 118.84222782 320.86572995 121.33206907 318.35620117 123.82080078 C317.62605804 124.548255 316.89591492 125.27570923 316.14364624 126.02520752 C312.17599079 129.95193971 308.1073871 133.69374698 303.8830328 137.34197998 C301.00953545 139.87210911 298.30451708 142.55578387 295.60327148 145.26733398 C295.01837952 145.85047363 294.43348755 146.43361328 293.83087158 147.03442383 C291.92511372 148.93583097 290.02297805 150.84081269 288.12109375 152.74609375 C286.78180764 154.08470487 285.44237324 155.42316763 284.10279846 156.76148987 C281.30657004 159.5562505 278.51214141 162.35279486 275.71899414 165.15063477 C272.15631983 168.71900577 268.58917403 172.28286764 265.02065945 175.845397 C262.25718 178.60524598 259.49610758 181.36749322 256.73573494 184.1304493 C255.42208093 185.44476571 254.10769667 186.75835269 252.7925396 188.07116508 C243.80177956 197.00963951 243.80177956 197.00963951 235.34095764 206.44496155 C234 208 234 208 232.39231873 209.54930115 C230.4171589 211.60727971 229.78530338 213.83093659 228.8125 216.5 C226.13613186 223.14671608 222.52535666 228.47485524 218 234 C217.47921875 234.64710938 216.9584375 235.29421875 216.421875 235.9609375 C211.11901967 241.87978107 204.02695867 245.5053305 197 249 C196.07574219 249.46019531 195.15148437 249.92039062 194.19921875 250.39453125 C181.71368367 255.50799931 163.46044385 254.98041873 151 250 C138.75791447 244.5344792 127.44499295 236.00298303 121 224 C120.20797545 221.86323624 119.41657943 219.72623947 118.62557983 217.58909607 C115.11927377 208.98146308 109.34968805 203.26681926 102.78759766 196.86352539 C101.54676461 195.62331343 100.3076933 194.38133678 99.07023621 193.13775635 C95.73461441 189.79562049 92.37499781 186.47862919 89.01009417 183.1660111 C85.47762071 179.6801818 81.96774313 176.17173876 78.45516968 172.6658783 C72.55863336 166.786757 66.64789965 160.92225287 60.7265625 155.06811523 C52.39276584 146.8288681 44.08461202 138.56413837 35.78164983 130.29383481 C24.63856977 119.19728626 13.48808638 108.10798833 2.30808449 97.04862976 C1.10446417 95.85744356 -0.09840177 94.66549451 -1.30042839 93.47270012 C-6.86222021 87.95505792 -12.41563876 82.46698769 -18.38493347 77.38438606 C-22.77093355 73.62483977 -26.84237315 69.50270948 -30.95507812 65.44995117 C-32.06572802 64.36089725 -33.18259751 63.27814922 -34.30566406 62.2019043 C-43.8991291 53.00232641 -51.96017695 43.36353199 -52.3125 29.4375 C-52.22437521 20.40470865 -49.27910267 11.64552246 -43 5 C-31.91009203 -5.08823886 -13.14018105 -8.73158611 0 0 Z " fill="#B08CD1" transform="translate(83,123)"/>
<path d="M0 0 C15.90499055 -0.62372512 31.01354277 4.34779043 43.4375 14.375 C55.89176781 26.17100842 62.93526554 40.90574581 63.48828125 58.01953125 C63.50266017 60.0129728 63.50648498 62.00651714 63.5 64 C63.51611328 65.00998047 63.53222656 66.01996094 63.54882812 67.06054688 C63.55232541 72.35893692 63.4734715 75.83185628 60.1875 80.1875 C59.18337479 82.37310948 58.18373154 84.5607812 57.1875 86.75 C49.42755116 102.78086698 35.65986193 112.46452822 19.08984375 118.2734375 C14.28220195 119.60475482 9.45725153 119.52963597 4.5 119.5 C3.52119873 119.49436035 2.54239746 119.4887207 1.53393555 119.48291016 C-14.73995614 119.20994444 -27.99765941 113.5052761 -39.8125 102.1875 C-53.64156748 86.79203329 -56.64894134 70.9906545 -55.99169922 50.88427734 C-55.63353198 45.49420193 -54.16907312 41.0040695 -51.8125 36.1875 C-51.21115234 34.83398438 -51.21115234 34.83398438 -50.59765625 33.453125 C-42.97749498 17.81522883 -29.94414603 7.90690604 -13.80078125 2.12109375 C-9.08527915 0.6478846 -4.89145527 0.32609702 0 0 Z " fill="#B08CD1" transform="translate(252.8125,256.8125)"/>
<path d="M0 0 C50.16 0 100.32 0 152 0 C152 50 152 50 144.9921875 61.92578125 C141.96586542 64.62785454 139.11928729 66.94889144 135.875 69.3125 C134.32468744 70.61892669 132.78553464 71.93871103 131.2578125 73.27148438 C127.86412566 76.18633457 124.39347526 78.94205952 120.80723572 81.61512756 C119.03373743 82.97414724 117.35626373 84.40687456 115.67358398 85.87597656 C113 88 113 88 110.41796875 87.93359375 C108.02903422 87.0112103 105.65842607 86.09005439 103.3125 85.0625 C89.98571297 79.65709228 73.40186956 78.6370675 59.9453125 84.28125 C58.07090199 85.17619401 56.21157834 86.10400252 54.375 87.07421875 C51.54276016 88.17823329 50.80785662 88.04436873 48 87 C41.17885866 82.02445485 35.04085187 75.94754687 28.8962059 70.16327477 C26.07592326 67.5109474 23.23378907 64.90791011 20.28808594 62.39501953 C19.71486603 61.89906784 19.14164612 61.40311615 18.55105591 60.89213562 C16.98633521 59.54405744 15.40894244 58.2107262 13.83056641 56.87866211 C-6.0164931 36.26524759 0 33.87502503 0 0 Z " fill="#FE8787" transform="translate(175,177)"/>
<path d="M0 0 C2.85162837 2.72968374 3.8691704 4.33122508 4.62890625 8.21484375 C3.7296491 13.627143 1.07822897 17.14365903 -2.0625 21.5625 C-2.69373779 22.47870117 -3.32497559 23.39490234 -3.9753418 24.33886719 C-5.30716622 26.27026742 -6.64560647 28.1971204 -7.99023438 30.11962891 C-10.52110362 33.74683922 -13.00546131 37.40442801 -15.48852539 41.06445312 C-17.33332609 43.78066349 -19.18745064 46.49032092 -21.04296875 49.19921875 C-23.50730257 52.80237823 -25.95627429 56.41517392 -28.38926697 60.03952026 C-29.92425813 62.32580431 -31.46323862 64.60939141 -33.00228882 66.89294434 C-34.09824685 68.52271606 -35.18847972 70.15633311 -36.27856445 71.79003906 C-36.95234131 72.78874023 -37.62611816 73.78744141 -38.3203125 74.81640625 C-38.91086426 75.69756104 -39.50141602 76.57871582 -40.10986328 77.48657227 C-40.7336084 78.31600342 -41.35735352 79.14543457 -42 80 C-42.6703125 80.91531494 -43.340625 81.83062988 -44.03125 82.77368164 C-48.51976648 86.13969988 -52.7012141 85.79197471 -58.1796875 85.8046875 C-59.80887619 85.82609299 -59.80887619 85.82609299 -61.47097778 85.84793091 C-63.76556367 85.86883478 -66.06030443 85.87640616 -68.35498047 85.87158203 C-71.8577652 85.87498326 -75.35376003 85.95289639 -78.85546875 86.03515625 C-81.08852368 86.04623329 -83.32160582 86.05288928 -85.5546875 86.0546875 C-87.11749954 86.10083694 -87.11749954 86.10083694 -88.71188354 86.1479187 C-93.06414565 86.07957022 -95.86808175 86.01410415 -99.192276 83.03590393 C-100.98153281 80.76293481 -102.52247717 78.48439291 -104 76 C-104.68449219 74.96230469 -105.36898437 73.92460937 -106.07421875 72.85546875 C-107.15759676 71.06382909 -108.24092945 69.27216204 -109.32421875 67.48046875 C-110.90267065 64.9729024 -110.90267065 64.9729024 -112.9453125 63.0625 C-115.44166067 60.55666001 -117.27986218 57.76844263 -119.1875 54.8125 C-120.05983219 53.48217636 -120.93364966 52.15282602 -121.80859375 50.82421875 C-122.30214355 50.07446777 -122.79569336 49.3247168 -123.30419922 48.55224609 C-126.74112674 43.37953657 -130.25113735 38.25592784 -133.75 33.125 C-135.86106905 30.02859237 -137.97132722 26.93171501 -140.07470703 23.83007812 C-141.31646402 22.00476149 -142.56683444 20.18526068 -143.82763672 18.37304688 C-144.64385498 17.18678711 -144.64385498 17.18678711 -145.4765625 15.9765625 C-146.1893335 14.95296631 -146.1893335 14.95296631 -146.91650391 13.90869141 C-148.69280992 10.77954306 -148.66786168 8.47288073 -148 5 C-140.31835718 -6.47748974 -121.56425692 -10.3562956 -109 -14 C-108.2251123 -14.22880859 -107.45022461 -14.45761719 -106.65185547 -14.69335938 C-73.11015797 -24.15813184 -29.47730292 -19.00951069 0 0 Z " fill="#FF9AC9" transform="translate(420,58)"/>
<path d="M0 0 C2.41028351 -0.00067511 4.82056694 -0.00164685 7.23085022 -0.00289917 C12.26287489 -0.00436669 17.29488171 -0.00225233 22.3269043 0.00244141 C28.73941693 0.008135 35.15188767 0.00485595 41.56439877 -0.00113106 C46.53614104 -0.00476493 51.50787358 -0.00358511 56.47961617 -0.00100327 C58.84243335 -0.00034164 61.20525144 -0.00113534 63.56806755 -0.00348282 C84.6568883 -0.01984062 84.6568883 -0.01984062 93.84985352 0.39111328 C94.95813004 0.43632111 96.06640656 0.48152893 97.20826721 0.52810669 C100.7979853 1.27938087 102.50139633 2.57241845 105.09765625 5.1328125 C110.93673985 16.8109797 100.28926533 47.34499697 99.09765625 53.1328125 C53.88765625 53.1328125 8.67765625 53.1328125 -37.90234375 53.1328125 C-40.16179805 46.3544496 -41.67972507 39.56686724 -43.15380859 32.59326172 C-43.48575037 31.03823968 -43.82525791 29.48481315 -44.17236328 27.93310547 C-44.67779717 25.67230686 -45.15959415 23.40754609 -45.63671875 21.140625 C-45.79388367 20.45702911 -45.95104858 19.77343323 -46.11297607 19.06912231 C-47.1903094 13.75063007 -46.58832846 10.18064262 -44.90234375 5.1328125 C-40.12125858 -0.04669643 -33.96834107 0.51399408 -27.26340866 0.2121048 C-18.18086458 -0.0929168 -9.08629526 -0.00901837 0 0 Z " fill="#CC6066" transform="translate(134.90234375,64.8671875)"/>
<path d="M0 0 C44.88 0 89.76 0 136 0 C136 1.32 136 2.64 136 4 C135.15405273 4.00410889 134.30810547 4.00821777 133.43652344 4.01245117 C130.23769014 4.03974125 127.04010218 4.08914733 123.84179688 4.15258789 C122.4688665 4.17550211 121.09576699 4.19009991 119.72265625 4.19555664 C107.67739549 4.25278924 96.77752284 6.29821431 87.75390625 14.83203125 C82.26332771 21.61882655 78.91211598 29.63372008 78.79467773 38.30737305 C78.77473251 39.60849533 78.75478729 40.90961761 78.73423767 42.25016785 C78.71725454 43.6706836 78.70037569 45.0912006 78.68359375 46.51171875 C78.66301863 47.96475306 78.64202201 49.41778146 78.62062073 50.87080383 C78.56545766 54.6929953 78.51602302 58.51524026 78.46777344 62.33752441 C78.41751628 66.23873652 78.36185222 70.13987105 78.30664062 74.04101562 C78.19912959 81.69394469 78.09766902 89.34693833 78 97 C73.23361535 93.000871 68.66677018 88.85463295 64.21020508 84.51416016 C63.57187241 83.89524902 62.93353973 83.27633789 62.27586365 82.63867188 C56.42918145 76.95994473 50.61735885 71.24553871 44.81633472 65.52021217 C40.93262487 61.68789947 37.03819806 57.86809142 33.11547852 54.07568359 C29.3003183 50.38670727 25.51608065 46.6684206 21.75095177 42.92841721 C20.32172283 41.51867091 18.88220126 40.11927273 17.4318943 38.73122025 C4.54999031 26.37726593 1.98187288 17.83685596 0 0 Z " fill="#FED4C1" transform="translate(97,118)"/>
<path d="M0 0 C0.33 0 0.66 0 1 0 C1.17404669 5.12271041 1.30052903 10.24367277 1.38452148 15.36865234 C1.41955827 17.10886642 1.46720509 18.84887688 1.52807617 20.58837891 C1.61375341 23.10109799 1.65285116 25.61107851 1.68359375 28.125 C1.71972275 28.89303955 1.75585175 29.6610791 1.79307556 30.45239258 C1.79713895 36.14082602 0.03966279 38.90937873 -3.88420105 42.94067383 C-4.5824147 43.62025146 -5.28062836 44.2998291 -6 45 C-6.71573685 45.73694092 -7.43147369 46.47388184 -8.16889954 47.2331543 C-10.55648807 49.68890308 -12.97360474 52.11229077 -15.3984375 54.53125 C-16.27400299 55.40777222 -17.14956848 56.28429443 -18.05166626 57.18737793 C-19.8875455 59.02393355 -21.72467164 60.8592435 -23.56298828 62.69335938 C-25.4502334 64.57699975 -27.33606586 66.46191165 -29.21923828 68.34960938 C-31.94298235 71.07949332 -34.67012213 73.80593553 -37.3984375 76.53125 C-38.67018326 77.8060321 -38.67018326 77.8060321 -39.96762085 79.10656738 C-40.74578156 79.88157593 -41.52394226 80.65658447 -42.32568359 81.45507812 C-43.01294525 82.14154419 -43.70020691 82.82801025 -44.40829468 83.53527832 C-46 85 -46 85 -47 85 C-47.00586624 84.10543594 -47.01173248 83.21087189 -47.01777649 82.28919983 C-47.07584755 73.8300472 -47.14800632 65.37115456 -47.23571491 56.91225529 C-47.28030988 52.56416261 -47.31958949 48.21616128 -47.34643555 43.86791992 C-47.37257764 39.66614925 -47.41305581 35.46473219 -47.46318626 31.26318169 C-47.47978162 29.6657904 -47.49134131 28.06833805 -47.49761391 26.47087288 C-47.53349787 18.16702105 -47.68966467 10.77292941 -51 3 C-50.39056549 2.99191315 -49.78113098 2.98382629 -49.15322876 2.97549438 C-42.82687016 2.88963155 -36.50083154 2.79013673 -30.17480469 2.68261719 C-27.81190349 2.64426473 -25.44894266 2.60942308 -23.0859375 2.578125 C-19.6950952 2.53261034 -16.30466576 2.47459381 -12.9140625 2.4140625 C-11.32182358 2.39673569 -11.32182358 2.39673569 -9.69741821 2.37905884 C-8.22611954 2.3492543 -8.22611954 2.3492543 -6.72509766 2.31884766 C-5.85905914 2.30552399 -4.99302063 2.29220032 -4.10073853 2.2784729 C-1.78242358 2.18779287 -1.78242358 2.18779287 0 0 Z " fill="#FCDCAA" transform="translate(375,140)"/>
<path d="M0 0 C5.25679059 4.22828809 9.55623417 9.58679429 10.875 16.3125 C11.74526136 24.89273311 10.57595521 32.3075813 5.3671875 39.3515625 C0.44969479 44.72649639 -5.03308072 47.87067313 -12.30859375 48.65625 C-21.76718428 48.91868488 -28.553251 47.44684497 -35.5859375 40.9921875 C-41.87693338 34.12637982 -42.55409745 26.83999392 -42.4609375 17.859375 C-41.7826779 10.69821552 -38.3895432 6.24707252 -33.25 1.4375 C-22.51394024 -7.17933754 -11.53208534 -6.22732608 0 0 Z " fill="#FE99C9" transform="translate(272.125,294.6875)"/>
<path d="M0 0 C1.69140625 1.37890625 1.69140625 1.37890625 4.19140625 3.87890625 C3.86140625 5.19890625 3.53140625 6.51890625 3.19140625 7.87890625 C-3.47308425 8.89380328 -10.13948824 9.89477607 -16.80859375 10.87890625 C-17.52724609 10.98525391 -18.24589844 11.09160156 -18.98632812 11.20117188 C-34.63304751 13.4897965 -50.15093188 14.08532343 -65.93359375 14.06640625 C-67.21320984 14.06599838 -67.21320984 14.06599838 -68.51867676 14.06558228 C-78.55216796 14.05088041 -88.55802832 13.96866489 -98.55859375 13.06640625 C-99.38375488 12.99639404 -100.20891602 12.92638184 -101.05908203 12.85424805 C-104.03911122 12.52758474 -106.32932505 12.20488284 -108.8359375 10.5 C-109.80859375 8.87890625 -109.80859375 8.87890625 -109.62109375 5.75390625 C-109.35296875 4.80515625 -109.08484375 3.85640625 -108.80859375 2.87890625 C-103.38726616 0.16824246 -95.30110471 1.8973989 -89.43359375 2.37890625 C-63.85840964 4.16865037 -38.07024466 2.84285998 -12.70703125 -0.7265625 C-3.24902314 -2.01397331 -3.24902314 -2.01397331 0 0 Z " fill="#FF83BC" transform="translate(446.80859375,379.12109375)"/>
<path d="M0 0 C1.58383488 0.11847584 3.16704288 0.24532272 4.75 0.375 C5.63171875 0.44460938 6.5134375 0.51421875 7.421875 0.5859375 C10.41827442 0.93268241 13.30662038 1.42158601 16.26953125 1.96875 C23.67440915 3.22713268 31.08100571 3.62798603 38.57202148 4.00537109 C40.93066471 4.12465432 43.28851398 4.25486259 45.64648438 4.38671875 C57.94308449 5.05376556 70.13633531 5.19740938 82.4375 4.5 C101.72106696 3.51712085 101.72106696 3.51712085 107 4 C109 6 109 6 109.3125 8.4375 C108.93876118 11.50215835 108.38159628 12.12275224 106 14 C98.65464216 15.8334215 90.32658798 15.19015417 82.8046875 15.23828125 C81.54997147 15.24789383 80.29525543 15.25750641 79.0025177 15.26741028 C74.95997932 15.29204991 70.91759685 15.30505547 66.875 15.3125 C66.19059971 15.31423973 65.50619942 15.31597946 64.80105972 15.31777191 C41.30740879 15.37062874 17.84497941 15.17732695 -5 9 C-3.02 6.69 -1.04 4.38 1 2 C0.67 1.34 0.34 0.68 0 0 Z " fill="#FF83BC" transform="translate(66,376)"/>
<path d="M0 0 C0.56589844 0.34160156 1.13179688 0.68320312 1.71484375 1.03515625 C2.70484375 1.53015625 2.70484375 1.53015625 3.71484375 2.03515625 C3.71484375 2.69515625 3.71484375 3.35515625 3.71484375 4.03515625 C-6.74592853 9.52629478 -17.5304369 13.68672604 -28.72265625 17.41015625 C-29.36736877 17.62661804 -30.0120813 17.84307983 -30.67633057 18.06610107 C-50.87865888 24.81903103 -50.87865888 24.81903103 -60.28515625 24.03515625 C-62.28515625 22.03515625 -62.28515625 22.03515625 -62.59765625 19.59765625 C-62.28515625 17.03515625 -62.28515625 17.03515625 -61.14453125 15.4609375 C-58.59792214 13.50818052 -56.37644587 13.22820725 -53.22265625 12.66015625 C-47.63294442 11.5410661 -42.10469704 10.32414244 -36.59765625 8.84765625 C-35.47508423 8.54722412 -35.47508423 8.54722412 -34.32983398 8.24072266 C-28.36754307 6.54803035 -22.90459723 4.12353844 -17.28515625 1.53515625 C-10.99769342 -1.32485864 -6.65395771 -3.07555514 0 0 Z " fill="#FF82BC" transform="translate(442.28515625,295.96484375)"/>
<path d="M0 0 C12.55922692 5.56364598 26.20402749 8.89147638 39.63671875 11.609375 C41.9375 12.25 41.9375 12.25 43.9375 14.25 C44.1875 16.75 44.1875 16.75 43.9375 19.25 C41.9375 21.25 41.9375 21.25 38.91015625 21.5 C34.23330813 21.20568507 29.92060162 20.35126501 25.375 19.25 C24.4667749 19.03069824 23.5585498 18.81139648 22.62280273 18.58544922 C7.03477239 14.65605283 -7.95258961 8.95507052 -22.0625 1.25 C-22.0625 0.26 -22.0625 -0.73 -22.0625 -1.75 C-20.52878125 -2.31377804 -18.98494099 -2.85005689 -17.4375 -3.375 C-16.57898438 -3.67664063 -15.72046875 -3.97828125 -14.8359375 -4.2890625 C-9.4462153 -5.18481915 -4.79957647 -2.21244417 0 0 Z " fill="#FF82BC" transform="translate(90.0625,298.75)"/>
<path d="M0 0 C2.54057273 1.11150057 3.42213082 2.64267372 5 4.875 C4.35933594 5.3596875 3.71867187 5.844375 3.05859375 6.34375 C-9.27195504 15.89946591 -18.85720742 28.20841587 -22 43.875 C-22.2275565 48.52460261 -22.18844776 53.15885117 -22.125 57.8125 C-22.11597656 59.06869141 -22.10695312 60.32488281 -22.09765625 61.61914062 C-22.07419249 64.70462522 -22.04136201 67.78971205 -22 70.875 C-23.12588014 69.91770084 -24.2506715 68.95912105 -25.375 68 C-26.00148437 67.46632813 -26.62796875 66.93265625 -27.2734375 66.3828125 C-30.97449619 63.15066623 -30.97449619 63.15066623 -31.265625 60.00390625 C-31.17569853 39.47818912 -25.4626487 22.0251487 -10.75 7.3125 C-3.14652109 -0.19665757 -3.14652109 -0.19665757 0 0 Z " fill="#A285DA" transform="translate(220,261.125)"/>
<path d="M0 0 C12.17552442 5.38962434 21.01946957 18.36340981 25.96875 30.28515625 C26.47921875 31.62900391 26.47921875 31.62900391 27 33 C27.3196875 33.80308594 27.639375 34.60617187 27.96875 35.43359375 C30.05531338 41.62566377 30.39562813 47.83025981 30.5625 54.3125 C30.60157471 55.17286865 30.64064941 56.0332373 30.6809082 56.91967773 C30.70019087 61.52285353 30.35522448 64.21491675 27.08984375 67.60546875 C24 70 24 70 22 70 C22.0314209 69.12601563 22.0314209 69.12601563 22.06347656 68.234375 C22.69109597 48.02344109 20.94250535 30.32855209 6.6875 14.6015625 C3.35903794 11.44260545 -0.29970259 8.70532855 -4 6 C-2.84826645 3.53199953 -1.95216435 1.95216435 0 0 Z " fill="#A285DA" transform="translate(293,261)"/>
<path d="M0 0 C4.29 0 8.58 0 13 0 C13.1077394 4.41731521 13.18720629 8.83201394 13.25 13.25 C13.30027344 15.13138672 13.30027344 15.13138672 13.3515625 17.05078125 C13.36445312 18.25605469 13.37734375 19.46132812 13.390625 20.703125 C13.41157227 21.81333008 13.43251953 22.92353516 13.45410156 24.06738281 C12.89686953 27.66602323 11.85707875 28.81440661 9 31 C6.17156621 31.48290333 4.75540741 31.52504059 2.37963867 29.8737793 C0.36910734 27.14314259 0.56437665 24.94544779 0.48828125 21.58203125 C0.45283203 20.32841797 0.41738281 19.07480469 0.38085938 17.78320312 C0.35830078 16.47287109 0.33574219 15.16253906 0.3125 13.8125 C0.27932334 12.47717987 0.24483334 11.14189168 0.20898438 9.80664062 C0.12638491 6.53806175 0.06151996 3.26904356 0 0 Z " fill="#BC424E" transform="translate(110,65)"/>
<path d="M0 0 C3.96 0 7.92 0 12 0 C12.1077394 4.41731521 12.18720629 8.83201394 12.25 13.25 C12.30027344 15.13138672 12.30027344 15.13138672 12.3515625 17.05078125 C12.36445313 18.25605469 12.37734375 19.46132812 12.390625 20.703125 C12.41157227 21.81333008 12.43251953 22.92353516 12.45410156 24.06738281 C11.89677478 27.66663512 10.85463771 28.81105284 8 31 C5.4375 31.5 5.4375 31.5 3 31 C0.69625 28.69108695 0.03865381 27.33283842 -0.34057617 24.06738281 C-0.32486572 22.95717773 -0.30915527 21.84697266 -0.29296875 20.703125 C-0.28330078 19.49785156 -0.27363281 18.29257813 -0.26367188 17.05078125 C-0.23853516 15.79652344 -0.21339844 14.54226562 -0.1875 13.25 C-0.17396484 11.98027344 -0.16042969 10.71054688 -0.14648438 9.40234375 C-0.11113518 6.26804816 -0.05732873 3.13397062 0 0 Z " fill="#BC434F" transform="translate(135,65)"/>
<path d="M0 0 C3.96 0 7.92 0 12 0 C12.1077394 4.41731521 12.18720629 8.83201394 12.25 13.25 C12.30027344 15.13138672 12.30027344 15.13138672 12.3515625 17.05078125 C12.36445313 18.25605469 12.37734375 19.46132812 12.390625 20.703125 C12.41157227 21.81333008 12.43251953 22.92353516 12.45410156 24.06738281 C11.89595998 27.67189717 10.9057757 28.85498069 8 31 C4.875 30.9375 4.875 30.9375 2 30 C-0.36008817 26.45986775 -0.23463644 24.98878045 -0.1953125 20.80078125 C-0.18886719 19.59228516 -0.18242187 18.38378906 -0.17578125 17.13867188 C-0.15064453 15.2447168 -0.15064453 15.2447168 -0.125 13.3125 C-0.11597656 12.03826172 -0.10695312 10.76402344 -0.09765625 9.45117188 C-0.07405722 6.30070146 -0.03818579 3.15032738 0 0 Z " fill="#BC434F" transform="translate(159,65)"/>
<path d="M0 0 C3.63 0 7.26 0 11 0 C11.07421454 3.93260944 11.12863136 7.86494722 11.16479492 11.7980957 C11.18728333 13.79327701 11.22540198 15.78826213 11.26367188 17.78320312 C11.27333984 19.03681641 11.28300781 20.29042969 11.29296875 21.58203125 C11.31653442 23.31803589 11.31653442 23.31803589 11.34057617 25.08911133 C11 28 11 28 9.63793945 29.87768555 C7.28987168 31.4865792 5.78208528 31.41731279 3 31 C1.36206055 29.87768555 1.36206055 29.87768555 0 28 C-0.34057617 25.08911133 -0.34057617 25.08911133 -0.29296875 21.58203125 C-0.28330078 20.32841797 -0.27363281 19.07480469 -0.26367188 17.78320312 C-0.23853516 16.47287109 -0.21339844 15.16253906 -0.1875 13.8125 C-0.17244967 12.47722837 -0.15876187 11.14194063 -0.14648438 9.80664062 C-0.11107694 6.53735424 -0.0616889 3.26887907 0 0 Z " fill="#BC414E" transform="translate(208,65)"/>
<path d="M0 0 C3.63 0 7.26 0 11 0 C11.07421454 3.93260944 11.12863136 7.86494722 11.16479492 11.7980957 C11.18728333 13.79327701 11.22540198 15.78826213 11.26367188 17.78320312 C11.27333984 19.03681641 11.28300781 20.29042969 11.29296875 21.58203125 C11.31653442 23.31803589 11.31653442 23.31803589 11.34057617 25.08911133 C11 28 11 28 9.63793945 29.87768555 C7.28987168 31.4865792 5.78208528 31.41731279 3 31 C1.36206055 29.87768555 1.36206055 29.87768555 0 28 C-0.34057617 25.08911133 -0.34057617 25.08911133 -0.29296875 21.58203125 C-0.28330078 20.32841797 -0.27363281 19.07480469 -0.26367188 17.78320312 C-0.23853516 16.47287109 -0.21339844 15.16253906 -0.1875 13.8125 C-0.17244967 12.47722837 -0.15876187 11.14194063 -0.14648438 9.80664062 C-0.11107694 6.53735424 -0.0616889 3.26887907 0 0 Z " fill="#BC414E" transform="translate(184,65)"/>
</svg>
